<svg xmlns="http://www.w3.org/2000/svg" width="512" height="531.028" viewBox="0 0 512 531.028"><g transform="translate(-728 -152.753)"><path d="M17.977,83.482c-.111,1.554-.111,3.107-.111,4.661,0,47.385,36.066,101.983,101.983,101.983a101.292,101.292,0,0,0,55.042-16.091,74.151,74.151,0,0,1-8.656.444,71.785,71.785,0,0,1-44.5-15.314,35.907,35.907,0,0,0,33.514-24.858,45.2,45.2,0,0,1-6.77.555,37.91,37.91,0,0,1-9.433-1.22,35.849,35.849,0,0,0,28.742-35.178v-.444a36.1,36.1,0,0,1-16.2,4.55,35.9,35.9,0,0,0,11.1-47.94A101.885,101.885,0,0,1,88.777,92.138a40.463,40.463,0,0,0,.888-8.212A35.878,35.878,0,0,0,27.632,59.4,70.57,70.57,0,0,1,4.883,50.745,35.747,35.747,0,0,0,20.641,70.5,71.857,71.857,0,0,1,0,64.95,77.05,77.05,0,0,0,17.977,83.482Z" transform="matrix(0.695, -0.719, 0.719, 0.695, 937.413, 245.158)" fill="#0cb9d9"/><path d="M22.506,0,45.012,50.187H0Z" transform="translate(961 277.42)" fill="#e0dfdf"/><g transform="translate(728 249.694)"><path d="M479.633,111.3h-28.85V110.28a32.4,32.4,0,0,0-32.367-32.367H32.367A32.4,32.4,0,0,0,0,110.28V405.426a28.693,28.693,0,0,0,28.661,28.661H479.633A32.4,32.4,0,0,0,512,401.72V143.672A32.4,32.4,0,0,0,479.633,111.3ZM28.661,411.826h0a6.409,6.409,0,0,1-6.4-6.4V110.28a10.117,10.117,0,0,1,10.106-10.106H418.415a10.117,10.117,0,0,1,10.106,10.106V401.72a32.274,32.274,0,0,0,1.615,10.106ZM489.739,401.72a10.117,10.117,0,0,1-10.106,10.106H460.889a10.117,10.117,0,0,1-10.106-10.106V133.565h28.85a10.117,10.117,0,0,1,10.106,10.106V401.72Z" fill="#d4d4d4"/><path d="M385.436,218.713H71a11.13,11.13,0,0,0,0,22.26H385.436a11.13,11.13,0,0,0,0-22.26Z" fill="#d4d4d4"/><path d="M133.61,196.452H322.827a11.13,11.13,0,0,0,11.13-11.13V137.461a11.13,11.13,0,0,0-11.13-11.13H133.61a11.13,11.13,0,0,0-11.13,11.13v47.861A11.129,11.129,0,0,0,133.61,196.452Zm11.13-47.861H311.7v25.6H144.74Z" fill="#d4d4d4"/><path d="M170.852,263.513H71a11.13,11.13,0,0,0-11.13,11.13V374.26A11.13,11.13,0,0,0,71,385.39h99.851a11.13,11.13,0,0,0,11.13-11.13V274.643A11.129,11.129,0,0,0,170.852,263.513Zm-11.13,99.617H82.132V285.773h77.59Z" fill="#d4d4d4"/><path d="M385.436,268.8H267.13a11.13,11.13,0,0,0,0,22.26h118.3a11.13,11.13,0,0,0,0-22.26Z" fill="#d4d4d4"/><path d="M223.722,291.061h3.061a11.13,11.13,0,0,0,0-22.26h-3.061a11.13,11.13,0,0,0,0,22.26Z" fill="#d4d4d4"/><path d="M385.436,313.322h-.693a11.13,11.13,0,0,0,0,22.26h.693a11.13,11.13,0,0,0,0-22.26Z" fill="#d4d4d4"/><path d="M223.722,335.583H347.27a11.13,11.13,0,0,0,0-22.26H223.722a11.13,11.13,0,0,0,0,22.26Z" fill="#d4d4d4"/><path d="M385.436,357.844H223.722a11.13,11.13,0,0,0,0,22.26H385.436a11.13,11.13,0,0,0,0-22.26Z" fill="#d4d4d4"/></g></g></svg>